<?xml version="1.0" encoding="UTF-8"?>
<svg width="81px" height="126px" viewBox="0 0 81 126" version="1.1" xmlns="http://www.w3.org/2000/svg" xmlns:xlink="http://www.w3.org/1999/xlink">
    <!-- Generator: Sketch 52.6 (67491) - http://www.bohemiancoding.com/sketch -->
    <title>Group 3</title>
    <desc>Created with Sketch.</desc>
    <g id="Page-1" stroke="none" stroke-width="1" fill="none" fill-rule="evenodd">
        <g id="Artboard" transform="translate(-69.000000, -30.000000)">
            <g id="Group-3" transform="translate(69.000000, 27.000000)">
                <path d="M3.81,52.571 C2.661,53.955 2.404,53.586 0.897,54.271 C0.764589204,55.4403511 1.07970094,56.6164824 1.779,57.563 C0.808,58.163 -0.073,58.478 0.005,59.906 C0.105,61.792 -0.219,60.196 0.585,61.133 L1.98,62.209 C1.612,70.809 3.185,70.054 11.064,70.021 C19.802,69.988 18.731,70.155 22.604,75.478 C25.0379175,78.8081769 27.2273174,82.3103478 29.155,85.957 L34.645,97.409 C40.683,95.188 51.998,92.152 53.851,82.834 C49.989,80.257 44.387,71.808 41.888,67.277 C40.805,70.759 39.767,73.839 36.096,75.334 C31.877,77.052 28.105,73.682 26.766,70.859 C24.579,66.284 24.423,54.276 36.118,55.168 C34.266,53.248 28.563,45.404 25.293,42.011 C15.439,45.37 16.332,47.011 13.932,50.838 C13.432,51.638 13.977,51.062 13.34,51.538 L11.074,45.209 C17.959,44.809 17.044,43.859 21.218,42.073 C23.004,41.314 23.361,41.437 24.309,40.611 L18.986,34.027 C17.022,31.616 15.449,29.527 13.373,27.354 C7.257,33.592 11.297,34.697 8.273,36.081 C5.639,32.766 12.179,27.398 12.279,26.216 C12.579,22.734 8.451,27.488 6.71,32.644 C4.79,38.291 8.596,40.969 4.891,44.597 C0.829,48.57 -1.069,47.219 2.949,51.472 C3.507,52.064 3.362,51.74 3.786,52.565 L3.809,52.576 L3.81,52.571 Z" id="Path" fill="#FFFFFF"></path>
                <g id="Group-2" transform="translate(45.500000, 26.500000) rotate(5.000000) translate(-45.500000, -26.500000) translate(18.000000, 3.000000)">
                    <path d="M0.876,12.8 L24.501,37.91 C26.733,40.287 31.301,44.16 32.436,46.525 C34.6255627,44.7968938 36.6844969,42.9094261 38.596,40.878 C40.939,38.434 43.518,37.285 43.652,33.702 L12.003,11.773 C8.432,9.34 6.781,6.373 0.866,12.8 L0.877,12.8 L0.876,12.8 Z" id="Path" fill="#FF1493"></path>
                    <path d="M0.876,12.8 L24.501,37.91 C26.733,40.287 31.301,44.16 32.436,46.525 C34.6255627,44.7968938 36.6844969,42.9094261 38.596,40.878 C40.939,38.434 43.518,37.285 43.652,33.702 L12.003,11.773 C8.432,9.34 6.781,6.373 0.866,12.8 L0.877,12.8 L0.876,12.8 Z" id="Path" fill="#B70569"></path>
                    <g id="Group" transform="translate(14.866000, 16.925000)" fill="#FEFEFE">
                        <g transform="translate(0.551000, 0.923000)">
                            <polygon id="Path" points="8.348 2.283 0.893 10.753 0.001 9.972 6.701 2.383 6.131 1.891 6.913 0.999 8.353 2.26 8.342 2.271"></polygon>
                            <path d="M6.071,7.762 C5.26125049,8.64059252 4.76663628,9.76350046 4.665,10.954 C4.52822864,11.93689 4.88785722,12.9236209 5.625,13.588 C6.38115672,14.2358386 7.40791079,14.4696169 8.37,14.213 C10.727571,13.6210866 12.4768827,11.6380033 12.77,9.225 C12.922736,8.23956102 12.5627288,7.24422676 11.8149452,6.58450106 C11.0671616,5.92477537 10.0347181,5.69163182 9.076,5.966 C7.90866754,6.22197314 6.85777592,6.85440541 6.085,7.766 L6.074,7.766 L6.071,7.762 Z M5.212,7.003 C6.16610352,5.86893019 7.48333948,5.10007143 8.94,4.827 C10.2167032,4.52777843 11.5595627,4.85541386 12.555,5.709 C13.5348078,6.58101793 14.03002,7.87461067 13.883,9.178 C13.6127957,12.1820967 11.4281911,14.665264 8.483,15.316 C7.20683971,15.635708 5.85506598,15.307453 4.86765459,14.4380756 C3.88024321,13.5686982 3.38346069,12.2693712 3.539,10.963 C3.62330818,9.48667978 4.21908989,8.08579719 5.224,7.001 L5.213,7.001 L5.212,7.003 Z" id="Shape" fill-rule="nonzero"></path>
                            <path d="M13.636,14.392 C12.8261861,15.2705504 12.3315617,16.3934814 12.23,17.584 C12.0949587,18.5645297 12.4496201,19.5489113 13.179,20.218 C13.937686,20.860794 14.9618148,21.0939745 15.924,20.843 C18.281571,20.2510866 20.0308827,18.2680033 20.324,15.855 C20.476736,14.869561 20.1167288,13.8742268 19.3689452,13.2145011 C18.6211616,12.5547754 17.5887181,12.3216318 16.63,12.596 C15.4626675,12.8519731 14.4117759,13.4844054 13.639,14.396 L13.636,14.392 Z M12.777,13.633 C13.7311035,12.4989302 15.0483395,11.7300714 16.505,11.457 C17.7817025,11.1579447 19.1244868,11.4855618 20.12,12.339 C21.1004222,13.2114451 21.5956939,14.5059392 21.448,15.81 C21.1777957,18.8140967 18.9931911,21.297264 16.048,21.948 C14.7718397,22.267708 13.420066,21.939453 12.4326546,21.0700756 C11.4452432,20.2006982 10.9484607,18.9013712 11.104,17.595 C11.1882256,16.1186605 11.7840187,14.7177511 12.789,13.633 L12.777,13.633 Z" id="Shape" fill-rule="nonzero"></path>
                            <polygon id="Path" points="25.533 17.326 18.067 25.786 17.186 25.005 23.87 17.416 23.301 16.925 24.093 16.033 25.532 17.294 25.521 17.317"></polygon>
                        </g>
                    </g>
                    <path d="M0.876,12.8 L24.501,37.91 C26.733,40.287 31.301,44.16 32.436,46.525 C34.6255627,44.7968938 36.6844969,42.9094261 38.596,40.878 C40.939,38.434 43.518,37.285 43.652,33.702 L12.003,11.773 C8.432,9.34 6.781,6.373 0.866,12.8 L0.877,12.8 L0.876,12.8 Z" id="Path"></path>
                    <path d="M10.608,9.128 C11.132,9.82 25.082,19.652 26.443,20.328 C28.686,21.455 41.275,23.709 45.482,24.747 C47.282,25.193 47.19,24.858 47.77,26.131 C45.415,27.08 34.144,23.062 30.416,23.051 L43.853,32.336 C46.0277553,33.1525574 48.3373843,33.5502194 50.66,33.508 C51.609,31.678 53.46,21.6 53.975,18.508 C54.7,14.122 51.141,15.059 41.019,13.062 L17.683,8.805 C14.692,8.269 12.148,6.953 10.597,9.129 L10.608,9.129 L10.608,9.128 Z" id="Path" fill="#FF1493"></path>
                    <path d="M10.608,9.128 C11.132,9.82 25.082,19.652 26.443,20.328 C28.686,21.455 41.275,23.709 45.482,24.747 C47.282,25.193 47.19,24.858 47.77,26.131 C45.415,27.08 34.144,23.062 30.416,23.051 L43.853,32.336 C46.0277553,33.1525574 48.3373843,33.5502194 50.66,33.508 C51.609,31.678 53.46,21.6 53.975,18.508 C54.7,14.122 51.141,15.059 41.019,13.062 L17.683,8.805 C14.692,8.269 12.148,6.953 10.597,9.129 L10.608,9.129 L10.608,9.128 Z" id="Path" fill="#B70569"></path>
                    <g id="Group" transform="translate(19.597000, 8.918000)" fill="#FEFEFE">
                        <g transform="translate(0.238000, 0.822000)">
                            <path d="M2.101,4.297 C1.86195918,5.28987474 1.96011597,6.33406597 2.38,7.265 C2.6789503,8.06333074 3.36408782,8.65430499 4.19765176,8.83283908 C5.03121569,9.01137317 5.89829867,8.75285606 6.498,8.147 C7.26347697,7.47366566 7.77872554,6.56123162 7.96,5.558 C8.20248615,4.56633733 8.10820288,3.52218536 7.692,2.59 C7.39551072,1.78993722 6.71146003,1.19633272 5.87760794,1.01550952 C5.04375585,0.834686329 4.17526406,1.09161758 3.574,1.697 C2.80884259,2.37225575 2.29053764,3.28324795 2.101,4.286 L2.101,4.297 Z M1.141,4.097 C1.37607554,2.85386421 2.03955729,1.7324916 3.016,0.928 C3.83555642,0.161754799 4.9784386,-0.154504039 6.07531696,0.0814245249 C7.17219532,0.317353089 8.08397177,1.07555032 8.516,2.111 C9.56519407,4.46899274 8.96966894,7.2347683 7.043,8.952 C6.21947394,9.71023678 5.08154934,10.0261616 3.985,9.801 C2.89444264,9.54969452 1.98765673,8.79614208 1.541,7.77 C0.990597778,6.6323418 0.849324202,5.33968858 1.141,4.11 L1.141,4.099 L1.141,4.097 Z" id="Shape" fill-rule="nonzero"></path>
                            <polygon id="Path" points="12.19 1.531 10.159 10.961 9.166 10.749 10.985 2.301 10.36 2.167 10.572 1.174 12.179 1.52 12.168 1.531"></polygon>
                            <path d="M12.77,6.574 C12.5309592,7.56687474 12.629116,8.61106597 13.049,9.542 C13.3479503,10.3403307 14.0330878,10.931305 14.8666518,11.1098391 C15.7002157,11.2883732 16.5672987,11.0298561 17.167,10.424 C17.932477,9.75066566 18.4477255,8.83823162 18.629,7.835 C18.8714861,6.84333733 18.7772029,5.79918536 18.361,4.867 C18.0645107,4.06693722 17.38046,3.47333272 16.5466079,3.29250952 C15.7127558,3.11168633 14.8442641,3.36861758 14.243,3.974 C13.4778426,4.64925575 12.9595376,5.56024795 12.77,6.563 L12.77,6.574 Z M11.81,6.374 C12.0450755,5.13086421 12.7085573,4.0094916 13.685,3.205 C14.5045564,2.4387548 15.6474386,2.12249596 16.744317,2.35842452 C17.8411953,2.59435309 18.7529718,3.35255032 19.185,4.388 C20.2341941,6.74599274 19.6386689,9.5117683 17.712,11.229 C16.8884739,11.9872368 15.7505493,12.3031616 14.654,12.078 C13.5634426,11.8266945 12.6566567,11.0731421 12.21,10.047 C11.6596776,8.90931888 11.5184071,7.61669373 11.81,6.387 L11.81,6.376 L11.81,6.374 Z" id="Shape" fill-rule="nonzero"></path>
                            <path d="M21.184,8.371 C20.9449592,9.36387474 21.043116,10.408066 21.463,11.339 C21.7619503,12.1373307 22.4470878,12.728305 23.2806518,12.9068391 C24.1142157,13.0853732 24.9812987,12.8268561 25.581,12.221 C26.346477,11.5476657 26.8617255,10.6352316 27.043,9.632 C27.2854861,8.64033733 27.1912029,7.59618536 26.775,6.664 C26.4785107,5.86393722 25.79446,5.27033272 24.9606079,5.08950952 C24.1267558,4.90868633 23.2582641,5.16561758 22.657,5.771 C21.8918426,6.44625575 21.3735376,7.35724795 21.184,8.36 L21.184,8.371 Z M20.224,8.171 C20.4590755,6.92786421 21.1225573,5.8064916 22.099,5.002 C22.9185564,4.2357548 24.0614386,3.91949596 25.158317,4.15542452 C26.2551953,4.39135309 27.1669718,5.14955032 27.599,6.185 C28.6474021,8.54016763 28.054941,11.3028311 26.133,13.021 C25.3094739,13.7792368 24.1715493,14.0951616 23.075,13.87 C21.9844426,13.6186945 21.0776567,12.8651421 20.631,11.839 C20.0806776,10.7013189 19.9394071,9.40869373 20.231,8.179 L20.231,8.168 L20.224,8.171 Z" id="Shape" fill-rule="nonzero"></path>
                            <polygon id="Path" points="31.272 5.615 29.241 15.045 28.249 14.822 30.079 6.374 29.443 6.241 29.654 5.248 31.262 5.593 31.262 5.604"></polygon>
                            <polygon id="Path" points="33.526 6.094 31.495 15.524 30.513 15.312 32.332 6.853 31.696 6.719 31.908 5.726 33.515 6.072 33.515 6.094"></polygon>
                        </g>
                    </g>
                    <path d="M10.608,9.128 C11.132,9.82 25.082,19.652 26.443,20.328 C28.686,21.455 41.275,23.709 45.482,24.747 C47.282,25.193 47.19,24.858 47.77,26.131 C45.415,27.08 34.144,23.062 30.416,23.051 L43.853,32.336 C46.0277553,33.1525574 48.3373843,33.5502194 50.66,33.508 C51.609,31.678 53.46,21.6 53.975,18.508 C54.7,14.122 51.141,15.059 41.019,13.062 L17.683,8.805 C14.692,8.269 12.148,6.953 10.597,9.129 L10.608,9.129 L10.608,9.128 Z" id="Path"></path>
                    <path d="M15.875,6.829 L16.555,7.197 C16.9011223,7.3553923 17.2592411,7.48613407 17.626,7.588 L50.815,13.57 C50.402,11.349 48.359,6.64 47.415,3.984 C45.964,-0.056 45.515,0.915 38.097,1.719 C34.091,2.155 30.129,2.668 26.056,3.059 C23.925,3.259 21.972,3.45 19.874,3.673 C16.839,4.008 16.448,3.973 15.901,6.82 L15.879,6.831 L15.875,6.829 Z" id="Path" fill="#FF1493"></path>
                    <path d="M15.875,6.829 L16.555,7.197 C16.9011223,7.3553923 17.2592411,7.48613407 17.626,7.588 L50.815,13.57 C50.402,11.349 48.359,6.64 47.415,3.984 C45.964,-0.056 45.515,0.915 38.097,1.719 C34.091,2.155 30.129,2.668 26.056,3.059 C23.925,3.259 21.972,3.45 19.874,3.673 C16.839,4.008 16.448,3.973 15.901,6.82 L15.879,6.831 L15.875,6.829 Z" id="Path" fill="#B70569"></path>
                    <g id="Group" transform="translate(17.875000, 0.000000)" fill="#FEFEFE">
                        <g transform="translate(0.272000, 0.679000)">
                            <path d="M1.936,4.041 C1.77902947,4.94171194 1.92830433,5.86904678 2.36,6.675 C2.68385219,7.35955893 3.32143157,7.84296952 4.068,7.97 C4.82286862,8.06365095 5.57617729,7.78470299 6.088,7.222 C6.72965855,6.57373748 7.13439522,5.72833451 7.237,4.822 C7.39756179,3.92251753 7.25215822,2.99517367 6.824,2.188 C6.50222939,1.49756887 5.85834214,1.01221731 5.106,0.893 C4.35471541,0.799781443 3.6052026,1.07898243 3.098,1.641 C2.45694905,2.29109596 2.04877493,3.13486676 1.937,4.041 L1.936,4.041 Z M1.065,3.918 C1.20336215,2.79371077 1.72791615,1.75237918 2.549,0.972 C3.24151946,0.243249767 4.24359275,-0.105799553 5.239,0.035 C6.23246981,0.185296434 7.09056975,0.809843953 7.539,1.709 C8.10230718,2.69158907 8.29929281,3.84197096 8.095,4.956 C7.96277183,6.0797867 7.44169245,7.12194545 6.622,7.902 C5.93426419,8.63596947 4.93043907,8.98621559 3.93538415,8.83939112 C2.94032922,8.69256666 2.08044179,8.06732206 1.634,7.166 C1.07080356,6.18338501 0.869486777,5.03457027 1.065,3.919 L1.065,3.918 Z" id="Shape" fill-rule="nonzero"></path>
                            <polygon id="Path" points="10.774 0.95 9.524 9.498 8.631 9.364 9.748 1.709 9.178 1.631 9.312 0.731 10.763 0.942 10.763 0.953"></polygon>
                            <polygon id="Path" points="12.816 1.251 11.566 9.788 10.673 9.665 11.789 1.998 11.22 1.92 11.354 1.02 12.804 1.231 12.804 1.242"></polygon>
                            <path d="M13.642,5.716 C13.4850295,6.61671194 13.6343043,7.54404678 14.066,8.35 C14.3784181,9.04642246 15.0247768,9.53513634 15.7799792,9.64594528 C16.5351816,9.75675422 17.2946889,9.47431949 17.794,8.897 C18.4356585,8.24873748 18.8403952,7.40333451 18.943,6.497 C19.1035618,5.59751753 18.9581582,4.67017367 18.53,3.863 C18.2082294,3.17256887 17.5643421,2.68721731 16.812,2.568 C16.0607154,2.47478144 15.3112026,2.75398243 14.804,3.316 C14.1629491,3.96609596 13.7547749,4.80986676 13.643,5.716 L13.642,5.716 Z M12.771,5.593 C12.9093622,4.46871077 13.4339161,3.42737918 14.255,2.647 C14.9427358,1.91303053 15.9465609,1.56278441 16.9416159,1.70960888 C17.9366708,1.85643334 18.7965582,2.48167794 19.243,3.383 C19.8069936,4.36533802 20.0046903,5.51573478 19.801,6.63 C19.6687718,7.7537867 19.1476925,8.79594545 18.328,9.576 C17.6402642,10.3099695 16.6364391,10.6602156 15.6413841,10.5133911 C14.6463292,10.3665667 13.7864418,9.74132206 13.34,8.84 C12.7768842,7.85735585 12.5755725,6.70857027 12.771,5.593 Z" id="Shape" fill-rule="nonzero"></path>
                            <polygon id="Path" points="22.481 2.621 21.231 11.169 20.339 11.046 21.455 3.379 20.886 3.301 21.02 2.401 22.47 2.613 22.47 2.621"></polygon>
                            <path d="M23.295,7.094 C23.1380295,7.99471194 23.2873043,8.92204678 23.719,9.728 C24.0314181,10.4244225 24.6777768,10.9131363 25.4329792,11.0239453 C26.1881816,11.1347542 26.9476889,10.8523195 27.447,10.275 C28.710586,8.91146515 29.0032317,6.91026162 28.183,5.242 C27.8612294,4.55156887 27.2173421,4.06621731 26.465,3.947 C25.7137154,3.85378144 24.9642026,4.13298243 24.457,4.695 C23.8159491,5.34509596 23.4077749,6.18886676 23.296,7.095 L23.295,7.094 Z M22.424,6.971 C22.5623622,5.84671077 23.0869161,4.80537918 23.908,4.025 C24.5957358,3.29103053 25.5995609,2.94078441 26.5946159,3.08760888 C27.5896708,3.23443334 28.4495582,3.85967794 28.896,4.761 C29.4599936,5.74333802 29.6576903,6.89373478 29.454,8.008 C29.3218538,9.13181119 28.8007612,10.1739963 27.981,10.954 C27.2932642,11.6879695 26.2894391,12.0382156 25.2943841,11.8913911 C24.2993292,11.7445667 23.4394418,11.1193221 22.993,10.218 C22.4309709,9.23678954 22.2296911,8.08995455 22.424,6.976 L22.424,6.971 Z" id="Shape" fill-rule="nonzero"></path>
                            <polygon id="Path" points="32.145 4.008 30.895 12.556 29.995 12.433 31.122 4.766 30.553 4.688 30.686 3.788 32.137 4 32.137 4.011"></polygon>
                        </g>
                    </g>
                    <path d="M15.875,6.829 L16.555,7.197 C16.9011223,7.3553923 17.2592411,7.48613407 17.626,7.588 L50.815,13.57 C50.402,11.349 48.359,6.64 47.415,3.984 C45.964,-0.056 45.515,0.915 38.097,1.719 C34.091,2.155 30.129,2.668 26.056,3.059 C23.925,3.259 21.972,3.45 19.874,3.673 C16.839,4.008 16.448,3.973 15.901,6.82 L15.879,6.831 L15.875,6.829 Z" id="Path"></path>
                    <polygon id="Path" fill="#FEFEFE" points="8.844 8.704 2.65 15.724 1.914 15.076 7.461 8.782 6.992 8.369 7.65 7.633 8.844 8.682 8.833 8.693"></polygon>
                    <path d="M6.947,13.246 C6.28057688,13.9777246 5.86935087,14.9057901 5.775,15.891 C5.64979456,16.7087885 5.94979188,17.5340266 6.57094265,18.0804935 C7.19209341,18.6269605 8.0488274,18.8193746 8.844,18.591 C9.81336242,18.3834776 10.6831249,17.8519561 11.31,17.084 C11.9856935,16.3615986 12.4018772,15.4349478 12.493,14.45 C12.6182054,13.6322115 12.3182081,12.8069734 11.6970574,12.2605065 C11.0759066,11.7140395 10.2191726,11.5216254 9.424,11.75 C8.45476402,11.9612955 7.58335004,12.4889988 6.947,13.25 L6.947,13.246 Z M6.233,12.621 C7.02372341,11.6795783 8.11584479,11.0407703 9.324,10.813 C10.3826516,10.5523842 11.5018173,10.8269976 12.3195964,11.5480394 C13.1373755,12.2690812 13.5499847,13.3450449 13.424,14.428 C13.2054481,16.924109 11.3869694,18.9870244 8.938,19.517 C7.87868229,19.7784685 6.75847344,19.5043938 5.939533,18.7833831 C5.12059256,18.0623725 4.70682504,16.9859054 4.832,15.902 C4.9003697,14.6737996 5.39800387,13.5086419 6.238,12.61 L6.238,12.621 L6.233,12.621 Z" id="Shape" fill="#FEFEFE" fill-rule="nonzero"></path>
                    <path d="M13.23,18.747 C12.5639406,19.4788582 12.1530715,20.4069101 12.059,21.392 C11.9337946,22.2097885 12.2337919,23.0350266 12.8549426,23.5814935 C13.4760934,24.1279605 14.3328274,24.3203746 15.128,24.092 C16.0973624,23.8844776 16.9671249,23.3529561 17.594,22.585 C18.2696935,21.8625986 18.6858772,20.9359478 18.777,19.951 C18.9022054,19.1332115 18.6022081,18.3079734 17.9810574,17.7615065 C17.3599066,17.2150395 16.5031726,17.0226254 15.708,17.251 C14.738764,17.4622955 13.86735,17.9899988 13.231,18.751 L13.23,18.747 Z M12.516,18.122 C13.3067234,17.1805783 14.3988448,16.5417703 15.607,16.314 C16.6656516,16.0533842 17.7848173,16.3279976 18.6025964,17.0490394 C19.4203755,17.7700812 19.8329847,18.8460449 19.707,19.929 C19.4884481,22.425109 17.6699694,24.4880244 15.221,25.018 C14.1616823,25.2794685 13.0414734,25.0053938 12.222533,24.2843831 C11.4035926,23.5633725 10.989825,22.4869054 11.115,21.403 C11.1833697,20.1747996 11.6810039,19.0096419 12.521,18.111 L12.521,18.122 L12.516,18.122 Z" id="Shape" fill="#FEFEFE" fill-rule="nonzero"></path>
                </g>
                <path d="M38.059,58.887 C39.8,71.665 28.859,70.817 29.131,61.756 C29.187,59.792 29.555,59.892 28.831,58.756 C25.382,67.283 28.239,74.346 34.031,74.168 C38.506,74.023 41.363,68.186 40.147,62.997 C39.9405724,61.5635125 39.3066395,60.2255971 38.328,59.158 C38.272,59.091 38.149,58.969 38.06,58.879 L38.06,58.89 L38.059,58.887 Z" id="Path" fill="#FFFFFF"></path>
                <path d="M33.25,56.611 C28.317,58.911 31.107,68.541 34.5,66.889 C38.228,65.07 36.978,54.881 33.25,56.611 Z" id="Path" fill="#210D15"></path>
                <path d="M2.482,48.877 C4.859,49.2 5.83,47.192 6.588,45.161 C4.688,45.92 5.807,45.741 4.177,47.036 C3.077,47.907 2.983,47.281 2.477,48.877 L2.482,48.877 Z" id="Path" fill="#EEEEF0"></path>
                <path d="M1.757,54.49 C2.482,55.427 0.641,54.445 2.728,55.84 C3.33045029,56.191746 3.98047184,56.4547858 4.658,56.621 C4.102,54.769 4.168,54.635 1.757,54.49 Z" id="Path" fill="#EEEEF0"></path>
                <path d="M1.344,58.753 C1.969,59.253 -0.33,60.003 2.639,59.166 C4.023,58.775 2.884,59.121 3.319,58.195 L1.344,58.764 L1.344,58.753 Z" id="Path" fill="#EEEEF0"></path>
                <path d="M39.409,98.84 C39.743,98.74 39.718,98.98 39.375,100.013 C40.313,99.742 41.308,99.436 42.36,99.077 C42.4964937,98.4004124 42.3118485,97.6987607 41.86,97.177 C41.493,96.849 40.941,96.826 40.053,97.194 C39.3322353,97.461868 38.6665971,97.8594208 38.089,98.367 C37.5390775,98.9048188 37.0659537,99.515909 36.683,100.183 C35.976,101.338 36.32,101.807 36.883,102.114 C37.542,102.473 38.415,102.636 38.153,103.414 C37.993,103.887 37.812,104.192 37.333,104.242 C36.739,104.305 36.992,103.69 37.299,102.95 C36.355,103.05 35.507,103.117 34.752,103.15 C34.2875618,103.699425 34.0485196,104.404403 34.083,105.123 C34.239,105.642 35.01,105.996 36.725,105.864 C38.2248322,105.849762 39.6906323,105.415322 40.956,104.61 C41.5877762,104.139121 41.9605852,103.39795 41.962,102.61 C42.074,101.337 40.946,101.1 39.972,100.875 C39.122,100.675 38.389,100.492 38.685,99.759 C38.951,99.104 39.117,98.918 39.408,98.832 L39.409,98.84 Z M47.365,93.421 C47.634,93.941 47.902,94.464 48.171,94.985 C48.44,95.506 48.708,96.027 48.971,96.549 C48.265,96.999 47.539,97.428 46.806,97.841 C46.6366667,97.275 46.468,96.7106667 46.3,96.148 C46.132,95.5853333 45.9633333,95.021 45.794,94.455 C44.999,94.913 44.213,95.367 43.435,95.762 C43.461,97.213 43.485,98.662 43.509,100.111 C43.533,101.56 43.558,103.011 43.583,104.46 C45.1672041,103.942882 46.7218698,103.33931 48.24,102.652 C48.08,102.116 47.918,101.581 47.76,101.046 C47.602,100.511 47.443,99.972 47.283,99.438 C48.112,98.992 48.932,98.523 49.727,98.023 C49.9843333,98.5163333 50.2396667,99.0113333 50.493,99.508 C50.7463333,100.004667 51.0006667,100.499 51.256,100.991 C52.6124172,100.104607 53.9218499,99.1483176 55.179,98.126 C54.235,97.0593333 53.2906667,95.9906667 52.346,94.92 C51.4013333,93.8493333 50.458,92.7806667 49.516,91.714 C48.828,92.298 48.104,92.867 47.36,93.422 L47.365,93.421 Z M53.3,90.111 C53.8085669,89.3940246 54.268915,88.6440382 54.678,87.866 L53.029,87.1 C52.7325485,87.7971935 52.3617358,88.4603649 51.923,89.078 C51.4098082,89.7650652 50.8491015,90.4153245 50.245,91.024 C51.277,92.019 52.314,93.008 53.345,94.003 C54.376,94.998 55.412,95.991 56.445,96.983 C57.4624242,96.0049868 58.4302998,94.9767024 59.345,93.902 C60.145,92.933 60.815,91.939 61.497,91.027 L59.848,90.261 C59.2166667,91.1616667 58.5343333,92.1003333 57.801,93.077 L56.192,92.016 C56.669,91.375 57.113,90.747 57.533,90.132 C57.004,89.865 56.478,89.595 55.952,89.326 C55.583,89.897 55.186,90.479 54.752,91.068 C54.272,90.75 53.79,90.428 53.3,90.111 Z" id="Shape" fill="#FFFFFF" fill-rule="nonzero"></path>
                <path d="M31.916,112.353 C31.586,112.338 31.445,112.241 31.516,111.89 C31.7489954,111.181707 32.0546213,110.49941 32.428,109.854 C32.759805,109.15524 33.1390236,108.479997 33.563,107.833 C33.832,107.472 34.025,107.373 34.278,107.375 C34.736,107.375 34.616,107.875 34.312,108.567 C34.997,108.567 35.712,108.558 36.475,108.501 C36.7279128,107.891363 36.7325779,107.207028 36.488,106.594 C36.2006994,106.08621 35.6362182,105.801011 35.057,105.871 C34.2222913,105.850909 33.4163758,106.176605 32.83,106.771 C31.9821687,107.661748 31.2473008,108.653551 30.642,109.724 C29.742,111.167 29.216,112.131 29.242,112.778 C29.268,113.425 29.896,113.778 31.336,113.859 C32.3376892,113.944508 33.3397297,113.698565 34.188,113.159 C34.8897896,112.681406 35.4032251,111.974195 35.64,111.159 C34.775,111.202 33.953,111.202 33.165,111.198 C32.852,111.917 32.514,112.378 31.914,112.352 L31.916,112.353 Z M36.982,110.269 C37.8010876,110.646573 38.6454612,110.96668 39.509,111.227 C40.5323373,111.49845 41.5703667,111.711131 42.618,111.864 C42.618,111.364 42.618,110.864 42.61,110.359 C41.3819885,110.182096 40.1640098,109.941438 38.961,109.638 C40.194,108.979 41.411,108.272 42.602,107.556 L42.602,106.048 C41.745,106.643 40.871,107.253 39.964,107.82 C39.057,108.387 38.135,108.876 37.214,109.375 C37.142,109.675 37.06,109.975 36.983,110.269 L36.982,110.269 Z M46.867,103.635 C46.6240097,105.095455 46.2937515,106.540042 45.878,107.961 C45.4085178,109.448075 44.855301,110.907406 44.221,112.332 C45.142,112.104 46.063,111.81 46.992,111.509 C48.0166469,108.705718 48.6231454,105.766896 48.792,102.787 C48.152,103.089 47.509,103.363 46.867,103.635 Z M56.567,102.141 C55.488,102.36 54.435,102.574 53.381,102.741 C52.345,102.904 51.312,103.022 50.297,103.1 C50.503,103.549333 50.7086667,103.997667 50.914,104.445 C52.28,104.258 53.655,104 55.034,103.697 C54.1060376,104.838312 53.1151667,105.927002 52.066,106.958 C52.2713333,107.407333 52.477,107.855667 52.683,108.303 C53.5625514,107.438177 54.3969894,106.52864 55.183,105.578 C55.906,104.672 56.54,103.74 57.144,102.84 C56.953,102.607 56.756,102.376 56.568,102.141 L56.567,102.141 Z M63.098,97.252 C62.0907729,96.4433479 60.906521,95.8844605 59.642,95.621 C58.764,95.549 58.047,95.97 57.094,96.912 C56.479,97.518 55.801,98.095 55.111,98.695 C56.019,99.687 56.9243333,100.679667 57.827,101.673 C58.727,102.666 59.639,103.657 60.542,104.649 C61.553,103.913 62.572,103.22 63.493,102.462 C64.916,101.29 65.501,100.413 65.365,99.62 C65.229,98.827 64.355,98.089 62.847,97.082 C62.932,97.136 63.014,97.193 63.1,97.251 L63.098,97.252 Z M61.141,98.718 C62.241,99.582 62.763,100.079 62.841,100.492 C62.919,100.905 62.575,101.245 61.92,101.801 L59.92,100.009 C59.2533333,99.409 58.5866667,98.809 57.92,98.209 C58.43,97.725 58.737,97.47 59.188,97.546 C59.9984922,97.8360021 60.737419,98.2963396 61.355,98.896 C61.283,98.834 61.205,98.775 61.128,98.716 L61.141,98.718 Z M62.409,93.571 C62.809,93.047 63.1916667,92.527 63.557,92.011 L61.771,91.183 C61.1543333,92.1403333 60.456,93.115 59.676,94.107 C60.9693333,94.923 62.2626667,95.738 63.556,96.552 C64.8493333,97.366 66.1456667,98.1803333 67.445,98.995 C68.657,97.759 69.8236667,96.574 70.945,95.44 C70.35,95.164 69.75,94.888 69.155,94.612 C68.6283333,95.182 68.0886667,95.762 67.536,96.352 C66.924,96.021 66.315,95.689 65.699,95.358 C66.054,94.952 66.405,94.558 66.744,94.158 C66.161,93.877 65.583,93.597 65.001,93.314 C64.701,93.697 64.384,94.082 64.063,94.472 C63.519,94.171 62.962,93.872 62.41,93.571 L62.409,93.571 Z" id="Shape" fill="#FFFFFF" fill-rule="nonzero"></path>
                <path d="M38.165,124.491 C38.265,123.772 38.365,123.055 38.465,122.34 C38.565,121.625 38.665,120.905 38.765,120.186 C39.54,120.114 40.334,120.024 41.145,119.895 C41.207,119.202 41.268,118.518 41.325,117.826 C40.549,117.962 39.795,118.047 39.055,118.126 C39.155,117.41 39.255,116.686 39.355,115.966 C40.346,115.852 41.367,115.695 42.419,115.486 C42.459,114.796 42.507,114.103 42.551,113.414 C40.662,113.781 38.869,113.996 37.151,114.206 C36.805,115.937 36.451,117.666 36.103,119.392 C35.755,121.118 35.403,122.846 35.055,124.572 C36.059,124.580667 37.0963333,124.554333 38.167,124.493 L38.165,124.491 Z M48.12,118.557 C48.7907933,118.807682 49.2522403,119.428424 49.299,120.143 C49.3580805,120.797898 49.485781,121.44478 49.68,122.073 C51.0213333,121.578333 52.3773333,121.049667 53.748,120.487 C53.3719335,119.796558 53.0875344,119.060011 52.902,118.296 C52.685472,117.418021 51.9462908,116.766951 51.048,116.663 C51.9187433,115.970967 52.2760167,114.815783 51.948,113.753 C51.8732428,112.850473 51.2283254,112.097532 50.348,111.885 C49.0353295,111.762165 47.7121919,111.950598 46.486,112.435 C45.511,112.727 44.544,112.988 43.593,113.192 C43.536,114.958 43.473,116.725 43.413,118.492 C43.353,120.259 43.294,122.028 43.237,123.792 C44.473,123.536 45.727,123.221 47.011,122.901 C46.98,122.24 46.945,121.585 46.911,120.925 C46.877,120.265 46.841,119.612 46.811,118.955 C47.24,118.821 47.674,118.69 48.111,118.555 L48.12,118.557 Z M46.59,114.323 C48.12,113.857 48.484,114.195 48.607,115.347 C48.73,116.499 48.407,116.892 46.744,117.404 C46.722,116.889 46.695,116.374 46.669,115.865 C46.643,115.356 46.616,114.838 46.59,114.322 L46.59,114.323 Z M52.758,110.062 C53.1833333,111.677333 53.607,113.292333 54.029,114.907 C54.451,116.521667 54.873,118.138 55.295,119.756 C56.676,119.098 58.035,118.338 59.389,117.565 C58.8016667,116.055 58.2113333,114.545667 57.618,113.037 C57.0246667,111.528333 56.4343333,110.018 55.847,108.506 C54.825,109.068 53.791,109.577 52.757,110.063 L52.758,110.062 Z M65.536,111.237 C64.987,111.676 64.614,111.844 64.217,111.63 C63.5883315,111.111797 63.077027,110.465849 62.717,109.735 C62.2265861,109.070357 61.8544664,108.326117 61.617,107.535 C61.541,107.058 61.749,106.756 62.217,106.415 C63.029,105.822 63.536,106.148 64.027,106.791 C65.084,105.9 66.109,105.021 67.108,104.14 C66.4862107,103.519161 65.612958,103.219591 64.741,103.328 C63.494973,103.543281 62.3246215,104.073382 61.341,104.868 C59.508,106.168 58.541,107.142 58.225,108.253 C57.902,109.38 58.225,110.616 58.961,112.275 C59.727,113.992 60.41,115.015 61.542,115.148 C62.697,115.283 64.342,114.53 66.754,112.523 C68.0881347,111.537338 69.1205622,110.19875 69.735,108.658 C70.0710602,107.799527 69.8522499,106.822991 69.182,106.19 C68.108,107.19 67.008,108.198 65.868,109.214 C66.381,109.867 66.489,110.475 65.535,111.238 L65.536,111.237 Z M67.703,99.767 C68.426,100.955 69.142,102.197 69.789,103.515 C70.452,104.866 71.034,106.306 71.613,107.802 C72.5463333,106.735333 73.455,105.694333 74.339,104.679 C74.098,104.321 73.852,103.966 73.612,103.609 C74.257,102.867 74.83,102.109 75.396,101.365 C75.825,101.465 76.259,101.565 76.696,101.656 C77.389,100.704 78.068,99.785 78.726,98.897 C77.187,98.797 75.668,98.673 74.168,98.475 C72.668,98.277 71.191,98.006 69.706,97.701 C69.075,98.385 68.406,99.066 67.706,99.767 L67.703,99.767 Z M70.894,100.128 C71.385,100.288 71.88,100.437 72.371,100.585 C72.862,100.733 73.353,100.87 73.848,100.998 C73.484,101.461 73.112,101.926 72.717,102.392 C72.424,102.005 72.128,101.621 71.817,101.243 C71.506,100.865 71.199,100.495 70.892,100.129 L70.894,100.128 Z" id="Shape" fill="#FFFFFF" fill-rule="nonzero"></path>
                <path d="M25.59,119.904 C25.66,119.956 25.624,119.904 25.683,119.998 C25.7169832,120.053283 25.7381672,120.115468 25.745,120.18 L26.227,120.152 C26.272,120.131 26.195,120.152 26.327,120.111 L26.427,120.083 C26.5254467,120.059544 26.6258968,120.045481 26.727,120.041 C26.693,119.969 27.271,120.041 27.364,120.041 C27.564,119.941 27.339,119.941 27.602,119.896 C28.117,119.817 27.953,120.096 28.167,120.203 C28.323,120.282 28.507,120.217 28.657,120.282 C28.957,120.414 28.716,120.836 28.657,121.113 L28.517,121.426 C28.9012128,121.445423 29.2863914,121.430699 29.668,121.382 L30.968,121.338 L31.907,121.31 L33.924,121.256 C33.836,121.356 33.872,121.337 33.64,121.4 C33.529,121.43 33.42,121.481 33.327,121.512 C33.116,121.584 32.934,121.634 32.727,121.718 C32.069,121.982 29.345,122.806 29.041,122.989 C28.989,123.267 29.1,123.332 29.051,123.56 C29.008,123.76 28.181,124.408 28.606,125.091 C28.872,125.518 28.616,126.534 28.906,126.948 L29.019,127.148 L30.038,127.032 L29.119,127.396 C29.043,128.037 28.886,127.663 29.234,128.132 C29.634,128.226 29.426,128.146 29.703,128.032 C29.982,127.979 30.225,128.348 31.067,127.561 C31.255,127.385 31.394,127.23 31.567,127.074 C31.952,126.735 31.731,126.796 31.89,126.352 C32.069,126.195 32.265,126.263 32.348,126.019 C32.3979392,125.761539 32.4253761,125.500219 32.43,125.238 C32.8639861,125.008581 33.2569719,124.708858 33.593,124.351 C33.793,124.111 33.604,124.101 33.574,123.874 C33.553,123.715 33.585,123.5 33.563,123.299 C33.213,123.223 32.518,123.399 32.111,123.359 L33.471,122.89 C33.502,122.046 33.433,122.446 33.823,122.044 C33.923062,121.944969 34.0140895,121.837209 34.095,121.722 C34.2645541,121.485998 34.5127806,121.318267 34.795,121.249 L35.051,121.042 C35.144,120.966 35.051,121.026 35.162,120.96 C35.3455919,120.573929 35.5498891,120.198049 35.774,119.834 L30.594,119.965 C31.007,119.736 34.105,119.174 34.61,118.905 C34.57,118.673 34.2,118.582 34.176,118.195 C34.046,118.12 33.93,117.785 33.876,117.587 C33.768,117.2 33.962,117.164 33.73,116.839 C33.35,116.839 27.63,117.98 26.53,118.027 C26.78,117.86 30.87,116.522 31.569,116.261 C31.732,116.2 33.06,115.743 33.21,115.629 L33.058,115.17 C32.79,115.144 32.565,115.155 32.292,115.108 C31.857,115.034 31.992,115.095 31.727,114.84 C30.964,114.611 31.082,115.071 31.064,115.267 C30.879,115.202 30.801,115.181 30.609,115.12 C30.378,115.047 30.542,114.975 30.435,114.784 C30.116,114.743 30.159,114.805 29.892,114.663 C29.722,114.573 29.568,114.639 29.352,114.678 C28.9785727,114.765672 28.5997411,114.828476 28.218,114.866 L29.818,114.203 L29.801,113.803 C29.5171664,113.835725 29.2317133,113.852418 28.946,113.853 C27.873,113.753 28.107,113.973 27.689,114.02 C27.201,114.074 27.203,113.859 26.914,114.203 C26.669,114.495 26.726,114.403 26.614,114.448 C26.307,114.58 26.396,114.748 26.225,115.076 C26.054,115.404 25.894,115.256 25.661,115.537 C25.5949631,115.636146 25.5177941,115.727406 25.431,115.809 C25.278,115.916 25.2,115.838 25.111,116.009 C25.111,116.009 24.875,116.845 24.87,116.879 L26.21,116.651 L24.822,117.179 C24.787,117.364 24.773,117.567 24.731,117.746 C24.616,118.235 24.225,117.994 24.857,118.846 C25.046,119.102 24.975,119.504 25.157,119.586 C25.339,119.668 26.657,119.374 26.988,119.371 L25.527,119.777 C25.616,119.892 25.564,119.804 25.578,119.897 L25.59,119.904 Z" id="Path" fill="#B70569"></path>
                <path d="M23.393,113.119 C24.001,113.191 24.073,113.703 23.32,114.832 L18.96,121.373 C18.2740057,122.326611 17.7621183,123.394058 17.448,124.526 C17.108749,125.410068 17.5432897,126.402604 18.423,126.753 L19.16,127.042 C19.405,127.142 19.652,127.236 19.899,127.331 L21.919,123.922 C21.719,123.859 21.519,123.793 21.319,123.728 C20.795,123.555 20.825,122.697 21.465,121.665 C22.837,119.455 24.209,117.246 25.581,115.038 C26.481,113.594 26.629,112.704 26.439,112.202 C27.5127406,111.544189 28.3978098,110.6195 29.008,109.518 C30.3786667,107.312 31.75,105.103667 33.122,102.893 C33.5434127,102.070129 34.214937,101.402105 35.04,100.985 L35.567,100.885 C36.241,99.7476667 36.915,98.6103333 37.589,97.473 C37.38,97.527 37.172,97.585 36.963,97.64 C36.754,97.695 36.548,97.751 36.339,97.807 C35.3220221,98.2125954 34.4253917,98.8710422 33.734,99.72 C32.8538086,100.678742 32.0512775,101.705982 31.334,102.792 L26.974,109.335 C26.225,110.46 25.537,110.902 24.937,110.864 C24.424,111.619 23.91,112.372 23.393,113.119 Z" id="Path" fill="#FFFFFF"></path>
                <path d="M71.138,89.553 C70.646,89.943 70.78,90.353 71.851,90.762 L78.051,93.109 C78.9751442,93.4104575 79.8231849,93.9081612 80.537,94.568 C80.8377166,94.846752 81.0097908,95.237439 81.0124422,95.6474708 C81.0150937,96.0575027 80.8480865,96.4503823 80.551,96.733 L80.032,97.353 C79.859,97.56 79.687,97.767 79.512,97.974 L76.496,96.61 C76.642,96.454 76.788,96.295 76.932,96.136 C77.313,95.719 76.963,95.11 76.025,94.714 C74.0163333,93.8646667 72.008,93.0156667 70,92.167 C68.688,91.611 68.221,91.047 68.192,90.575 C67.0938671,90.6999007 65.9826523,90.5163719 64.983,90.045 L58.962,87.499 C58.2340321,87.1291318 57.4029774,87.0143335 56.602,87.173 L56.117,87.396 L53.097,86.031 C53.297,85.954 53.497,85.881 53.697,85.806 L54.297,85.582 C55.2591988,85.3159519 56.2731718,85.2984044 57.244,85.531 C58.3391083,85.7370648 59.4134438,86.0412925 60.454,86.44 L66.654,88.79 C67.3779297,89.1825309 68.2525603,89.1764912 68.971,88.774 C69.69,89.033 70.414,89.295 71.138,89.553 Z" id="Path" fill="#FFFFFF"></path>
            </g>
        </g>
    </g>
</svg>